<?xml version="1.0"?>
<!DOCTYPE svg PUBLIC "-//W3C//DTD SVG 1.0//EN" "http://www.w3.org/TR/2001/REC-SVG-20010904/DTD/svg10.dtd">
<svg xmlns="http://www.w3.org/2000/svg" xmlns:xlink="http://www.w3.org/1999/xlink" width="934" height="406" text-rendering="auto" shape-rendering="auto">
<defs><clipPath id="_e8kww4_0"><path d="M0,0 L144,0 L144,84 L0,84 L0,0 Z"/></clipPath>
<clipPath id="_e8kww4_1"><path d="M0,0 L144,0 L144,72 L0,72 L0,0 Z"/></clipPath>
<clipPath id="_e8kww4_2"><path d="M0,0 L276,0 L276,48 L0,48 L0,0 Z"/></clipPath>
<clipPath id="_e8kww4_3"><path d="M0,0 L396,0 L396,120 L0,120 L0,0 Z"/></clipPath>
<clipPath id="_e8kww4_4"><path d="M0,0 L0,20 L390,20 L390,0 Z"/></clipPath>
<clipPath id="_e8kww4_5"><path d="M0,0 L108,0 L108,84 L0,84 L0,0 Z"/></clipPath>
<clipPath id="_e8kww4_6"><path d="M0,0 L0,37 L102,37 L102,0 Z"/></clipPath>
<clipPath id="_e8kww4_7"><path d="M0,0 L132,0 L132,84 L0,84 L0,0 Z"/></clipPath>
<clipPath id="_e8kww4_8"><path d="M0,0 L0,37 L126,37 L126,0 Z"/></clipPath>
<clipPath id="_e8kww4_9"><path d="M0,0 L144,0 L144,48 L0,48 L0,0 Z"/></clipPath>
<clipPath id="_e8kww4_10"><path d="M0,0 L169,0 L169,25 L0,25 L0,0 Z"/></clipPath>
<clipPath id="_e8kww4_11"><path d="M0,0 L169,0 L169,85 L0,85 L0,0 Z"/></clipPath>
<clipPath id="_e8kww4_12"><path d="M0,0 L85,0 L85,25 L0,25 L0,0 Z"/></clipPath>
<clipPath id="_e8kww4_13"><path d="M0,0 L25,0 L25,85 L0,85 L0,0 Z"/></clipPath>
<clipPath id="_e8kww4_14"><path d="M0,0 L169,0 L169,73 L0,73 L0,0 Z"/></clipPath>
<clipPath id="_e8kww4_15"><path d="M0,0 L121,0 L121,73 L0,73 L0,0 Z"/></clipPath>
<clipPath id="_e8kww4_16"><path d="M0,0 L121,0 L121,25 L0,25 L0,0 Z"/></clipPath>
<clipPath id="_e8kww4_17"><path d="M0,0 L121,0 L121,85 L0,85 L0,0 Z"/></clipPath>
</defs>
<g style="font-family:Microsoft YaHei;font-size:14px;stroke-linecap:square;stroke-opacity:1;fill-opacity:1;">
<ellipse cx="71" cy="41" rx="71" ry="41" style="fill:#80c0ff;fill-opacity:0.5;" transform="matrix(1,0,0,1,785,77)" clip-path="url(#_e8kww4_0)"/>
<ellipse cx="71" cy="41" rx="71" ry="41" style="stroke:#990033;fill:none;" transform="matrix(1,0,0,1,785,77)" clip-path="url(#_e8kww4_0)"/>
<g transform="matrix(1,0,0,1,785,77)"><text x="39" y="47" style="fill:#990033;" clip-path="url(#_e8kww4_0)">Java Bean</text></g>
<ellipse cx="71" cy="35" rx="71" ry="35" style="fill:#80c0ff;fill-opacity:0.5;" transform="matrix(1,0,0,1,785,197)" clip-path="url(#_e8kww4_1)"/>
<ellipse cx="71" cy="35" rx="71" ry="35" style="stroke:#990033;fill:none;" transform="matrix(1,0,0,1,785,197)" clip-path="url(#_e8kww4_1)"/>
<g transform="matrix(1,0,0,1,785,197)"><text x="57" y="23" style="fill:#990033;" clip-path="url(#_e8kww4_1)">Map</text></g>
<g transform="matrix(1,0,0,1,785,197)"><text x="36" y="40" style="fill:#990033;" clip-path="url(#_e8kww4_1)">(HashMap,</text></g>
<g transform="matrix(1,0,0,1,785,197)"><text x="33" y="57" style="fill:#990033;" clip-path="url(#_e8kww4_1)"> TreeMap...)</text></g>
<ellipse cx="71" cy="35" rx="71" ry="35" style="fill:#80ff80;fill-opacity:0.5;" transform="matrix(1,0,0,1,5,197)" clip-path="url(#_e8kww4_1)"/>
<ellipse cx="71" cy="35" rx="71" ry="35" style="stroke:#990033;fill:none;" transform="matrix(1,0,0,1,5,197)" clip-path="url(#_e8kww4_1)"/>
<g transform="matrix(1,0,0,1,5,197)"><text x="57" y="23" style="fill:#990033;" clip-path="url(#_e8kww4_1)">Map</text></g>
<g transform="matrix(1,0,0,1,5,197)"><text x="36" y="40" style="fill:#990033;" clip-path="url(#_e8kww4_1)">(HashMap,</text></g>
<g transform="matrix(1,0,0,1,5,197)"><text x="33" y="57" style="fill:#990033;" clip-path="url(#_e8kww4_1)"> TreeMap...)</text></g>
<ellipse cx="71" cy="35" rx="71" ry="35" style="fill:#80ff80;fill-opacity:0.5;" transform="matrix(1,0,0,1,5,89)" clip-path="url(#_e8kww4_1)"/>
<ellipse cx="71" cy="35" rx="71" ry="35" style="stroke:#990033;fill:none;" transform="matrix(1,0,0,1,5,89)" clip-path="url(#_e8kww4_1)"/>
<g transform="matrix(1,0,0,1,5,89)"><text x="39" y="41" style="fill:#990033;" clip-path="url(#_e8kww4_1)">Java Bean</text></g>
<ellipse cx="71" cy="35" rx="71" ry="35" style="fill:#80ff80;fill-opacity:0.5;" transform="matrix(1,0,0,1,5,317)" clip-path="url(#_e8kww4_1)"/>
<ellipse cx="71" cy="35" rx="71" ry="35" style="stroke:#990033;fill:none;" transform="matrix(1,0,0,1,5,317)" clip-path="url(#_e8kww4_1)"/>
<g transform="matrix(1,0,0,1,5,317)"><text x="37" y="23" style="fill:#990033;" clip-path="url(#_e8kww4_1)">&quot;Primitive&quot;</text></g>
<g transform="matrix(1,0,0,1,5,317)"><text x="44" y="40" style="fill:#990033;" clip-path="url(#_e8kww4_1)">(Integer,</text></g>
<g transform="matrix(1,0,0,1,5,317)"><text x="43" y="57" style="fill:#990033;" clip-path="url(#_e8kww4_1)"> String...)</text></g>
<ellipse cx="71" cy="35" rx="71" ry="35" style="fill:#80c0ff;fill-opacity:0.5;" transform="matrix(1,0,0,1,785,317)" clip-path="url(#_e8kww4_1)"/>
<ellipse cx="71" cy="35" rx="71" ry="35" style="stroke:#990033;fill:none;" transform="matrix(1,0,0,1,785,317)" clip-path="url(#_e8kww4_1)"/>
<g transform="matrix(1,0,0,1,785,317)"><text x="37" y="23" style="fill:#990033;" clip-path="url(#_e8kww4_1)">&quot;Primitive&quot;</text></g>
<g transform="matrix(1,0,0,1,785,317)"><text x="44" y="40" style="fill:#990033;" clip-path="url(#_e8kww4_1)">(Integer,</text></g>
<g transform="matrix(1,0,0,1,785,317)"><text x="43" y="57" style="fill:#990033;" clip-path="url(#_e8kww4_1)"> String...)</text></g>
<rect x="0" y="0" width="275" height="47" style="fill:#f0e68c;fill-opacity:0.5;" transform="matrix(1,0,0,1,341,353)" clip-path="url(#_e8kww4_2)"/>
<line x1="0" y1="0" x2="274" y2="0" style="stroke:#990033;" transform="matrix(1,0,0,1,341,353)" clip-path="url(#_e8kww4_2)"/>
<line x1="275" y1="0" x2="275" y2="46" style="stroke:#990033;" transform="matrix(1,0,0,1,341,353)" clip-path="url(#_e8kww4_2)"/>
<line x1="275" y1="47" x2="1" y2="47" style="stroke:#990033;" transform="matrix(1,0,0,1,341,353)" clip-path="url(#_e8kww4_2)"/>
<line x1="0" y1="47" x2="0" y2="1" style="stroke:#990033;" transform="matrix(1,0,0,1,341,353)" clip-path="url(#_e8kww4_2)"/>
<line x1="7" y1="0" x2="7" y2="47" style="stroke:#990033;" transform="matrix(1,0,0,1,341,353)" clip-path="url(#_e8kww4_2)"/>
<line x1="269" y1="0" x2="269" y2="47" style="stroke:#990033;" transform="matrix(1,0,0,1,341,353)" clip-path="url(#_e8kww4_2)"/>
<g transform="matrix(1,0,0,1,341,353)"><text x="121" y="29" style="fill:#990033;" clip-path="url(#_e8kww4_2)">JDBC</text></g>
<rect x="0" y="0" width="395" height="119" style="fill:#ffafaf;fill-opacity:0.5;" transform="matrix(1,0,0,1,293,173)" clip-path="url(#_e8kww4_3)"/>
<line x1="0" y1="0" x2="394" y2="0" style="stroke-width:2;stroke:#990033;" transform="matrix(1,0,0,1,293,173)" clip-path="url(#_e8kww4_3)"/>
<line x1="395" y1="0" x2="395" y2="118" style="stroke-width:2;stroke:#990033;" transform="matrix(1,0,0,1,293,173)" clip-path="url(#_e8kww4_3)"/>
<line x1="395" y1="119" x2="1" y2="119" style="stroke-width:2;stroke:#990033;" transform="matrix(1,0,0,1,293,173)" clip-path="url(#_e8kww4_3)"/>
<line x1="0" y1="119" x2="0" y2="1" style="stroke-width:2;stroke:#990033;" transform="matrix(1,0,0,1,293,173)" clip-path="url(#_e8kww4_3)"/>
<g transform="matrix(1,0,0,1,293,173)"><text x="181" y="17" style="fill:#990033;font-family:monospace;" clip-path="url(#_e8kww4_3)">«</text></g>
<g transform="matrix(1,0,0,1,293,173)"><text x="188" y="17" style="fill:#990033;" clip-path="url(#_e8kww4_3)">sql</text></g>
<g transform="matrix(1,0,0,1,293,173)"><text x="207" y="17" style="fill:#990033;font-family:monospace;" clip-path="url(#_e8kww4_3)">»</text></g>
<g transform="matrix(1,0,0,1,293,173)"><text x="170" y="34" style="fill:#990033;" clip-path="url(#_e8kww4_3)">Sql Map</text></g>
<rect x="0" y="0" width="383" height="19" style="fill:#fefdfc;fill-opacity:0;" transform="matrix(1,0,0,1,299,210)" clip-path="url(#_e8kww4_4)"/>
<line x1="0" y1="0" x2="382" y2="0" style="stroke:#990033;" transform="matrix(1,0,0,1,299,210)" clip-path="url(#_e8kww4_4)"/>
<line x1="383" y1="0" x2="383" y2="18" style="stroke:#990033;" transform="matrix(1,0,0,1,299,210)" clip-path="url(#_e8kww4_4)"/>
<line x1="383" y1="19" x2="1" y2="19" style="stroke:#990033;" transform="matrix(1,0,0,1,299,210)" clip-path="url(#_e8kww4_4)"/>
<line x1="0" y1="19" x2="0" y2="1" style="stroke:#990033;" transform="matrix(1,0,0,1,299,210)" clip-path="url(#_e8kww4_4)"/>
<g transform="matrix(1,0,0,1,299,210)"><text x="132" y="17" style="fill:#990033;" clip-path="url(#_e8kww4_4)">MappedSatement</text></g>
<rect x="0" y="0" width="383" height="19" style="fill:#fefdfc;fill-opacity:0;" transform="matrix(1,0,0,1,299,233)" clip-path="url(#_e8kww4_4)"/>
<line x1="0" y1="0" x2="382" y2="0" style="stroke:#990033;" transform="matrix(1,0,0,1,299,233)" clip-path="url(#_e8kww4_4)"/>
<line x1="383" y1="0" x2="383" y2="18" style="stroke:#990033;" transform="matrix(1,0,0,1,299,233)" clip-path="url(#_e8kww4_4)"/>
<line x1="383" y1="19" x2="1" y2="19" style="stroke:#990033;" transform="matrix(1,0,0,1,299,233)" clip-path="url(#_e8kww4_4)"/>
<line x1="0" y1="19" x2="0" y2="1" style="stroke:#990033;" transform="matrix(1,0,0,1,299,233)" clip-path="url(#_e8kww4_4)"/>
<g transform="matrix(1,0,0,1,299,233)"><text x="132" y="17" style="fill:#990033;" clip-path="url(#_e8kww4_4)">MappedSatement</text></g>
<rect x="0" y="0" width="383" height="19" style="fill:#fefdfc;fill-opacity:0;" transform="matrix(1,0,0,1,299,256)" clip-path="url(#_e8kww4_4)"/>
<line x1="0" y1="0" x2="382" y2="0" style="stroke:#990033;" transform="matrix(1,0,0,1,299,256)" clip-path="url(#_e8kww4_4)"/>
<line x1="383" y1="0" x2="383" y2="18" style="stroke:#990033;" transform="matrix(1,0,0,1,299,256)" clip-path="url(#_e8kww4_4)"/>
<line x1="383" y1="19" x2="1" y2="19" style="stroke:#990033;" transform="matrix(1,0,0,1,299,256)" clip-path="url(#_e8kww4_4)"/>
<line x1="0" y1="19" x2="0" y2="1" style="stroke:#990033;" transform="matrix(1,0,0,1,299,256)" clip-path="url(#_e8kww4_4)"/>
<g transform="matrix(1,0,0,1,299,256)"><text x="132" y="17" style="fill:#990033;" clip-path="url(#_e8kww4_4)">MappedSatement</text></g>
<rect x="0" y="0" width="107" height="83" style="fill:#ffd700;fill-opacity:0.5;" transform="matrix(1,0,0,1,257,29)" clip-path="url(#_e8kww4_5)"/>
<line x1="0" y1="0" x2="106" y2="0" style="stroke-width:2;stroke:#990033;" transform="matrix(1,0,0,1,257,29)" clip-path="url(#_e8kww4_5)"/>
<line x1="107" y1="0" x2="107" y2="82" style="stroke-width:2;stroke:#990033;" transform="matrix(1,0,0,1,257,29)" clip-path="url(#_e8kww4_5)"/>
<line x1="107" y1="83" x2="1" y2="83" style="stroke-width:2;stroke:#990033;" transform="matrix(1,0,0,1,257,29)" clip-path="url(#_e8kww4_5)"/>
<line x1="0" y1="83" x2="0" y2="1" style="stroke-width:2;stroke:#990033;" transform="matrix(1,0,0,1,257,29)" clip-path="url(#_e8kww4_5)"/>
<g transform="matrix(1,0,0,1,257,29)"><text x="35" y="17" style="fill:#990033;font-family:monospace;" clip-path="url(#_e8kww4_5)">«</text></g>
<g transform="matrix(1,0,0,1,257,29)"><text x="42" y="17" style="fill:#990033;" clip-path="url(#_e8kww4_5)">xml</text></g>
<g transform="matrix(1,0,0,1,257,29)"><text x="66" y="17" style="fill:#990033;font-family:monospace;" clip-path="url(#_e8kww4_5)">»</text></g>
<g transform="matrix(1,0,0,1,257,29)"><text x="15" y="34" style="fill:#990033;" clip-path="url(#_e8kww4_5)">SqlMap.xml</text></g>
<rect x="0" y="0" width="95" height="36" style="fill:#fefdfc;fill-opacity:0;" transform="matrix(1,0,0,1,263,66)" clip-path="url(#_e8kww4_6)"/>
<line x1="0" y1="0" x2="94" y2="0" style="stroke:#990033;" transform="matrix(1,0,0,1,263,66)" clip-path="url(#_e8kww4_6)"/>
<line x1="95" y1="0" x2="95" y2="35" style="stroke:#990033;" transform="matrix(1,0,0,1,263,66)" clip-path="url(#_e8kww4_6)"/>
<line x1="95" y1="36" x2="1" y2="36" style="stroke:#990033;" transform="matrix(1,0,0,1,263,66)" clip-path="url(#_e8kww4_6)"/>
<line x1="0" y1="36" x2="0" y2="1" style="stroke:#990033;" transform="matrix(1,0,0,1,263,66)" clip-path="url(#_e8kww4_6)"/>
<g transform="matrix(1,0,0,1,263,66)"><text x="30" y="17" style="fill:#990033;" clip-path="url(#_e8kww4_6)">------</text></g>
<g transform="matrix(1,0,0,1,263,66)"><text x="30" y="34" style="fill:#990033;" clip-path="url(#_e8kww4_6)">------</text></g>
<rect x="0" y="0" width="131" height="83" style="fill:#ffd700;fill-opacity:0.5;" transform="matrix(1,0,0,1,425,29)" clip-path="url(#_e8kww4_7)"/>
<line x1="0" y1="0" x2="130" y2="0" style="stroke-width:2;stroke:#990033;" transform="matrix(1,0,0,1,425,29)" clip-path="url(#_e8kww4_7)"/>
<line x1="131" y1="0" x2="131" y2="82" style="stroke-width:2;stroke:#990033;" transform="matrix(1,0,0,1,425,29)" clip-path="url(#_e8kww4_7)"/>
<line x1="131" y1="83" x2="1" y2="83" style="stroke-width:2;stroke:#990033;" transform="matrix(1,0,0,1,425,29)" clip-path="url(#_e8kww4_7)"/>
<line x1="0" y1="83" x2="0" y2="1" style="stroke-width:2;stroke:#990033;" transform="matrix(1,0,0,1,425,29)" clip-path="url(#_e8kww4_7)"/>
<g transform="matrix(1,0,0,1,425,29)"><text x="47" y="17" style="fill:#990033;font-family:monospace;" clip-path="url(#_e8kww4_7)">«</text></g>
<g transform="matrix(1,0,0,1,425,29)"><text x="54" y="17" style="fill:#990033;" clip-path="url(#_e8kww4_7)">xml</text></g>
<g transform="matrix(1,0,0,1,425,29)"><text x="78" y="17" style="fill:#990033;font-family:monospace;" clip-path="url(#_e8kww4_7)">»</text></g>
<g transform="matrix(1,0,0,1,425,29)"><text x="5" y="34" style="fill:#990033;" clip-path="url(#_e8kww4_7)">SqlMapConfig.xml</text></g>
<rect x="0" y="0" width="119" height="36" style="fill:#fefdfc;fill-opacity:0;" transform="matrix(1,0,0,1,431,66)" clip-path="url(#_e8kww4_8)"/>
<line x1="0" y1="0" x2="118" y2="0" style="stroke:#990033;" transform="matrix(1,0,0,1,431,66)" clip-path="url(#_e8kww4_8)"/>
<line x1="119" y1="0" x2="119" y2="35" style="stroke:#990033;" transform="matrix(1,0,0,1,431,66)" clip-path="url(#_e8kww4_8)"/>
<line x1="119" y1="36" x2="1" y2="36" style="stroke:#990033;" transform="matrix(1,0,0,1,431,66)" clip-path="url(#_e8kww4_8)"/>
<line x1="0" y1="36" x2="0" y2="1" style="stroke:#990033;" transform="matrix(1,0,0,1,431,66)" clip-path="url(#_e8kww4_8)"/>
<g transform="matrix(1,0,0,1,431,66)"><text x="42" y="17" style="fill:#990033;" clip-path="url(#_e8kww4_8)">------</text></g>
<g transform="matrix(1,0,0,1,431,66)"><text x="42" y="34" style="fill:#990033;" clip-path="url(#_e8kww4_8)">------</text></g>
<rect x="0" y="0" width="107" height="83" style="fill:#ffd700;fill-opacity:0.5;" transform="matrix(1,0,0,1,617,29)" clip-path="url(#_e8kww4_5)"/>
<line x1="0" y1="0" x2="106" y2="0" style="stroke-width:2;stroke:#990033;" transform="matrix(1,0,0,1,617,29)" clip-path="url(#_e8kww4_5)"/>
<line x1="107" y1="0" x2="107" y2="82" style="stroke-width:2;stroke:#990033;" transform="matrix(1,0,0,1,617,29)" clip-path="url(#_e8kww4_5)"/>
<line x1="107" y1="83" x2="1" y2="83" style="stroke-width:2;stroke:#990033;" transform="matrix(1,0,0,1,617,29)" clip-path="url(#_e8kww4_5)"/>
<line x1="0" y1="83" x2="0" y2="1" style="stroke-width:2;stroke:#990033;" transform="matrix(1,0,0,1,617,29)" clip-path="url(#_e8kww4_5)"/>
<g transform="matrix(1,0,0,1,617,29)"><text x="35" y="17" style="fill:#990033;font-family:monospace;" clip-path="url(#_e8kww4_5)">«</text></g>
<g transform="matrix(1,0,0,1,617,29)"><text x="42" y="17" style="fill:#990033;" clip-path="url(#_e8kww4_5)">xml</text></g>
<g transform="matrix(1,0,0,1,617,29)"><text x="66" y="17" style="fill:#990033;font-family:monospace;" clip-path="url(#_e8kww4_5)">»</text></g>
<g transform="matrix(1,0,0,1,617,29)"><text x="15" y="34" style="fill:#990033;" clip-path="url(#_e8kww4_5)">SqlMap.xml</text></g>
<rect x="0" y="0" width="95" height="36" style="fill:#fefdfc;fill-opacity:0;" transform="matrix(1,0,0,1,623,66)" clip-path="url(#_e8kww4_6)"/>
<line x1="0" y1="0" x2="94" y2="0" style="stroke:#990033;" transform="matrix(1,0,0,1,623,66)" clip-path="url(#_e8kww4_6)"/>
<line x1="95" y1="0" x2="95" y2="35" style="stroke:#990033;" transform="matrix(1,0,0,1,623,66)" clip-path="url(#_e8kww4_6)"/>
<line x1="95" y1="36" x2="1" y2="36" style="stroke:#990033;" transform="matrix(1,0,0,1,623,66)" clip-path="url(#_e8kww4_6)"/>
<line x1="0" y1="36" x2="0" y2="1" style="stroke:#990033;" transform="matrix(1,0,0,1,623,66)" clip-path="url(#_e8kww4_6)"/>
<g transform="matrix(1,0,0,1,623,66)"><text x="30" y="17" style="fill:#990033;" clip-path="url(#_e8kww4_6)">------</text></g>
<g transform="matrix(1,0,0,1,623,66)"><text x="30" y="34" style="fill:#990033;" clip-path="url(#_e8kww4_6)">------</text></g>
<g transform="matrix(1,0,0,1,17,5)"><text x="3" y="18" style="fill:#228b22;font-size:15px;" clip-path="url(#_e8kww4_9)">Parameter Object</text></g>
<g transform="matrix(1,0,0,1,17,5)"><text x="3" y="36" style="fill:#228b22;font-size:15px;" clip-path="url(#_e8kww4_9)">(input)</text></g>
<g transform="matrix(1,0,0,1,785,5)"><text x="3" y="18" style="fill:blue;font-size:15px;" clip-path="url(#_e8kww4_9)">Result Object</text></g>
<g transform="matrix(1,0,0,1,785,5)"><text x="3" y="36" style="fill:blue;font-size:15px;" clip-path="url(#_e8kww4_9)">(output)</text></g>
<line x1="156" y1="12" x2="84" y2="12" style="stroke:black;" transform="matrix(1,0,0,1,137,221)" clip-path="url(#_e8kww4_10)"/>
<line x1="84" y1="12" x2="12" y2="12" style="stroke:black;" transform="matrix(1,0,0,1,137,221)" clip-path="url(#_e8kww4_10)"/>
<line x1="155" y1="12" x2="143" y2="18" style="stroke:black;" transform="matrix(1,0,0,1,137,221)" clip-path="url(#_e8kww4_10)"/>
<line x1="155" y1="12" x2="143" y2="6" style="stroke:black;" transform="matrix(1,0,0,1,137,221)" clip-path="url(#_e8kww4_10)"/>
<g style="fill:white;; stroke: none" transform="matrix(1,0,0,1,137,221)" clip-path="url(#_e8kww4_10)"><path d="M155,12 L143,18 L143,6 Z"/></g>
<g style="stroke:black;fill:none;" transform="matrix(1,0,0,1,137,221)" clip-path="url(#_e8kww4_10)"><path d="M155,12 L143,18 L143,6 Z"/></g>
<line x1="156" y1="12" x2="84" y2="42" style="stroke:black;" transform="matrix(1,0,0,1,137,281)" clip-path="url(#_e8kww4_11)"/>
<line x1="84" y1="42" x2="12" y2="72" style="stroke:black;" transform="matrix(1,0,0,1,137,281)" clip-path="url(#_e8kww4_11)"/>
<line x1="155" y1="12" x2="146" y2="22" style="stroke:black;" transform="matrix(1,0,0,1,137,281)" clip-path="url(#_e8kww4_11)"/>
<line x1="155" y1="12" x2="142" y2="12" style="stroke:black;" transform="matrix(1,0,0,1,137,281)" clip-path="url(#_e8kww4_11)"/>
<g style="fill:white;; stroke: none" transform="matrix(1,0,0,1,137,281)" clip-path="url(#_e8kww4_11)"><path d="M155,12 L146,22 L142,12 Z"/></g>
<g style="stroke:black;fill:none;" transform="matrix(1,0,0,1,137,281)" clip-path="url(#_e8kww4_11)"><path d="M155,12 L146,22 L142,12 Z"/></g>
<line x1="72" y1="12" x2="42" y2="12" style="stroke:black;" transform="matrix(1,0,0,1,353,53)" clip-path="url(#_e8kww4_12)"/>
<line x1="42" y1="12" x2="12" y2="12" style="stroke:black;" transform="matrix(1,0,0,1,353,53)" clip-path="url(#_e8kww4_12)"/>
<line x1="72" y1="12" x2="60" y2="18" style="stroke:black;" transform="matrix(1,0,0,1,353,53)" clip-path="url(#_e8kww4_12)"/>
<line x1="72" y1="12" x2="60" y2="6" style="stroke:black;" transform="matrix(1,0,0,1,353,53)" clip-path="url(#_e8kww4_12)"/>
<g style="fill:white;; stroke: none" transform="matrix(1,0,0,1,353,53)" clip-path="url(#_e8kww4_12)"><path d="M72,12 L60,18 L60,6 Z"/></g>
<g style="stroke:black;fill:none;" transform="matrix(1,0,0,1,353,53)" clip-path="url(#_e8kww4_12)"><path d="M72,12 L60,18 L60,6 Z"/></g>
<line x1="12" y1="72" x2="12" y2="42" style="stroke:black;" transform="matrix(1,0,0,1,401,281)" clip-path="url(#_e8kww4_13)"/>
<line x1="12" y1="42" x2="12" y2="12" style="stroke:black;" transform="matrix(1,0,0,1,401,281)" clip-path="url(#_e8kww4_13)"/>
<line x1="12" y1="72" x2="6" y2="60" style="stroke:black;" transform="matrix(1,0,0,1,401,281)" clip-path="url(#_e8kww4_13)"/>
<line x1="12" y1="72" x2="18" y2="60" style="stroke:black;" transform="matrix(1,0,0,1,401,281)" clip-path="url(#_e8kww4_13)"/>
<g style="fill:white;; stroke: none" transform="matrix(1,0,0,1,401,281)" clip-path="url(#_e8kww4_13)"><path d="M12,72 L6,60 L18,60 Z"/></g>
<g style="stroke:black;fill:none;" transform="matrix(1,0,0,1,401,281)" clip-path="url(#_e8kww4_13)"><path d="M12,72 L6,60 L18,60 Z"/></g>
<line x1="12" y1="12" x2="12" y2="42" style="stroke:black;" transform="matrix(1,0,0,1,521,281)" clip-path="url(#_e8kww4_13)"/>
<line x1="12" y1="42" x2="12" y2="72" style="stroke:black;" transform="matrix(1,0,0,1,521,281)" clip-path="url(#_e8kww4_13)"/>
<line x1="12" y1="12" x2="18" y2="24" style="stroke:black;" transform="matrix(1,0,0,1,521,281)" clip-path="url(#_e8kww4_13)"/>
<line x1="12" y1="12" x2="6" y2="24" style="stroke:black;" transform="matrix(1,0,0,1,521,281)" clip-path="url(#_e8kww4_13)"/>
<g style="fill:white;; stroke: none" transform="matrix(1,0,0,1,521,281)" clip-path="url(#_e8kww4_13)"><path d="M12,12 L18,24 L6,24 Z"/></g>
<g style="stroke:black;fill:none;" transform="matrix(1,0,0,1,521,281)" clip-path="url(#_e8kww4_13)"><path d="M12,12 L18,24 L6,24 Z"/></g>
<line x1="12" y1="12" x2="42" y2="12" style="stroke:black;" transform="matrix(1,0,0,1,545,53)" clip-path="url(#_e8kww4_12)"/>
<line x1="42" y1="12" x2="72" y2="12" style="stroke:black;" transform="matrix(1,0,0,1,545,53)" clip-path="url(#_e8kww4_12)"/>
<line x1="12" y1="12" x2="24" y2="6" style="stroke:black;" transform="matrix(1,0,0,1,545,53)" clip-path="url(#_e8kww4_12)"/>
<line x1="12" y1="12" x2="24" y2="18" style="stroke:black;" transform="matrix(1,0,0,1,545,53)" clip-path="url(#_e8kww4_12)"/>
<g style="fill:white;; stroke: none" transform="matrix(1,0,0,1,545,53)" clip-path="url(#_e8kww4_12)"><path d="M12,12 L24,6 L24,18 Z"/></g>
<g style="stroke:black;fill:none;" transform="matrix(1,0,0,1,545,53)" clip-path="url(#_e8kww4_12)"><path d="M12,12 L24,6 L24,18 Z"/></g>
<line x1="156" y1="60" x2="84" y2="36" style="stroke:black;" transform="matrix(1,0,0,1,137,113)" clip-path="url(#_e8kww4_14)"/>
<line x1="84" y1="36" x2="12" y2="12" style="stroke:black;" transform="matrix(1,0,0,1,137,113)" clip-path="url(#_e8kww4_14)"/>
<line x1="155" y1="60" x2="142" y2="61" style="stroke:black;" transform="matrix(1,0,0,1,137,113)" clip-path="url(#_e8kww4_14)"/>
<line x1="155" y1="60" x2="146" y2="51" style="stroke:black;" transform="matrix(1,0,0,1,137,113)" clip-path="url(#_e8kww4_14)"/>
<g style="fill:white;; stroke: none" transform="matrix(1,0,0,1,137,113)" clip-path="url(#_e8kww4_14)"><path d="M155,60 L142,61 L146,51 Z"/></g>
<g style="stroke:black;fill:none;" transform="matrix(1,0,0,1,137,113)" clip-path="url(#_e8kww4_14)"><path d="M155,60 L142,61 L146,51 Z"/></g>
<line x1="12" y1="60" x2="60" y2="36" style="stroke:black;" transform="matrix(1,0,0,1,677,113)" clip-path="url(#_e8kww4_15)"/>
<line x1="60" y1="36" x2="108" y2="12" style="stroke:black;" transform="matrix(1,0,0,1,677,113)" clip-path="url(#_e8kww4_15)"/>
<line x1="13" y1="60" x2="21" y2="49" style="stroke:black;" transform="matrix(1,0,0,1,677,113)" clip-path="url(#_e8kww4_15)"/>
<line x1="13" y1="60" x2="27" y2="60" style="stroke:black;" transform="matrix(1,0,0,1,677,113)" clip-path="url(#_e8kww4_15)"/>
<g style="fill:white;; stroke: none" transform="matrix(1,0,0,1,677,113)" clip-path="url(#_e8kww4_15)"><path d="M13,60 L21,49 L27,60 Z"/></g>
<g style="stroke:black;fill:none;" transform="matrix(1,0,0,1,677,113)" clip-path="url(#_e8kww4_15)"><path d="M13,60 L21,49 L27,60 Z"/></g>
<line x1="12" y1="12" x2="60" y2="12" style="stroke:black;" transform="matrix(1,0,0,1,677,221)" clip-path="url(#_e8kww4_16)"/>
<line x1="60" y1="12" x2="108" y2="12" style="stroke:black;" transform="matrix(1,0,0,1,677,221)" clip-path="url(#_e8kww4_16)"/>
<line x1="13" y1="12" x2="25" y2="6" style="stroke:black;" transform="matrix(1,0,0,1,677,221)" clip-path="url(#_e8kww4_16)"/>
<line x1="13" y1="12" x2="25" y2="18" style="stroke:black;" transform="matrix(1,0,0,1,677,221)" clip-path="url(#_e8kww4_16)"/>
<g style="fill:white;; stroke: none" transform="matrix(1,0,0,1,677,221)" clip-path="url(#_e8kww4_16)"><path d="M13,12 L25,6 L25,18 Z"/></g>
<g style="stroke:black;fill:none;" transform="matrix(1,0,0,1,677,221)" clip-path="url(#_e8kww4_16)"><path d="M13,12 L25,6 L25,18 Z"/></g>
<line x1="12" y1="12" x2="60" y2="42" style="stroke:black;" transform="matrix(1,0,0,1,677,281)" clip-path="url(#_e8kww4_17)"/>
<line x1="60" y1="42" x2="108" y2="72" style="stroke:black;" transform="matrix(1,0,0,1,677,281)" clip-path="url(#_e8kww4_17)"/>
<line x1="13" y1="12" x2="26" y2="13" style="stroke:black;" transform="matrix(1,0,0,1,677,281)" clip-path="url(#_e8kww4_17)"/>
<line x1="13" y1="12" x2="20" y2="23" style="stroke:black;" transform="matrix(1,0,0,1,677,281)" clip-path="url(#_e8kww4_17)"/>
<g style="fill:white;; stroke: none" transform="matrix(1,0,0,1,677,281)" clip-path="url(#_e8kww4_17)"><path d="M13,12 L26,13 L20,23 Z"/></g>
<g style="stroke:black;fill:none;" transform="matrix(1,0,0,1,677,281)" clip-path="url(#_e8kww4_17)"><path d="M13,12 L26,13 L20,23 Z"/></g>
<g transform="matrix(1,0,0,1,0,0)"><text x="2" y="404" style="fill:#c0c0c0;font-family:Impact;font-size:11px;" >(c)jbatis.org</text></g></g></svg>
