<?xml version="1.0"?>
<!DOCTYPE svg PUBLIC "-//W3C//DTD SVG 1.0//EN" "http://www.w3.org/TR/2001/REC-SVG-20010904/DTD/svg10.dtd">
<svg xmlns="http://www.w3.org/2000/svg" xmlns:xlink="http://www.w3.org/1999/xlink" width="730" height="646" text-rendering="auto" shape-rendering="auto">
<defs><clipPath id="_9m3i21_0"><path d="M0,0 L156,0 L156,48 L0,48 L0,0 Z"/></clipPath>
<clipPath id="_9m3i21_1"><path d="M0,0 L180,0 L180,48 L0,48 L0,0 Z"/></clipPath>
<clipPath id="_9m3i21_2"><path d="M0,0 L144,0 L144,48 L0,48 L0,0 Z"/></clipPath>
<clipPath id="_9m3i21_3"><path d="M0,0 L72,0 L72,72 L0,72 L0,0 Z"/></clipPath>
<clipPath id="_9m3i21_4"><path d="M0,0 L132,0 L132,36 L0,36 L0,0 Z"/></clipPath>
<clipPath id="_9m3i21_5"><path d="M0,0 L108,0 L108,36 L0,36 L0,0 Z"/></clipPath>
<clipPath id="_9m3i21_6"><path d="M0,0 L133,0 L133,133 L0,133 L0,0 Z"/></clipPath>
<clipPath id="_9m3i21_7"><path d="M0,0 L133,0 L133,145 L0,145 L0,0 Z"/></clipPath>
<clipPath id="_9m3i21_8"><path d="M0,0 L133,0 L133,121 L0,121 L0,0 Z"/></clipPath>
<clipPath id="_9m3i21_9"><path d="M0,0 L229,0 L229,133 L0,133 L0,0 Z"/></clipPath>
<clipPath id="_9m3i21_10"><path d="M0,0 L121,0 L121,145 L0,145 L0,0 Z"/></clipPath>
<clipPath id="_9m3i21_11"><path d="M0,0 L97,0 L97,145 L0,145 L0,0 Z"/></clipPath>
<clipPath id="_9m3i21_12"><path d="M0,0 L121,0 L121,277 L0,277 L0,0 Z"/></clipPath>
<clipPath id="_9m3i21_13"><path d="M0,0 L169,0 L169,49 L0,49 L0,0 Z"/></clipPath>
</defs>
<g style="font-family:Microsoft YaHei;font-size:14px;stroke-linecap:square;stroke-opacity:1;fill-opacity:1;">
<rect x="0" y="0" width="155" height="47" style="fill:#80ff80;fill-opacity:0.5;" transform="matrix(1,0,0,1,101,293)" clip-path="url(#_9m3i21_0)"/>
<line x1="0" y1="0" x2="154" y2="0" style="stroke:#990033;" transform="matrix(1,0,0,1,101,293)" clip-path="url(#_9m3i21_0)"/>
<line x1="155" y1="0" x2="155" y2="46" style="stroke:#990033;" transform="matrix(1,0,0,1,101,293)" clip-path="url(#_9m3i21_0)"/>
<line x1="155" y1="47" x2="1" y2="47" style="stroke:#990033;" transform="matrix(1,0,0,1,101,293)" clip-path="url(#_9m3i21_0)"/>
<line x1="0" y1="47" x2="0" y2="1" style="stroke:#990033;" transform="matrix(1,0,0,1,101,293)" clip-path="url(#_9m3i21_0)"/>
<g transform="matrix(1,0,0,1,101,293)"><text x="36" y="17" style="fill:#990033;font-family:monospace;" clip-path="url(#_9m3i21_0)">«</text></g>
<g transform="matrix(1,0,0,1,101,293)"><text x="43" y="17" style="fill:#990033;" clip-path="url(#_9m3i21_0)">cache root</text></g>
<g transform="matrix(1,0,0,1,101,293)"><text x="114" y="17" style="fill:#990033;font-family:monospace;" clip-path="url(#_9m3i21_0)">»</text></g>
<g transform="matrix(1,0,0,1,101,293)"><text x="48" y="34" style="fill:#990033;" clip-path="url(#_9m3i21_0)">&quot;a_table&quot;</text></g>
<rect x="0" y="0" width="155" height="47" style="fill:#80ff80;fill-opacity:0.5;" transform="matrix(1,0,0,1,329,293)" clip-path="url(#_9m3i21_0)"/>
<line x1="0" y1="0" x2="154" y2="0" style="stroke:#990033;" transform="matrix(1,0,0,1,329,293)" clip-path="url(#_9m3i21_0)"/>
<line x1="155" y1="0" x2="155" y2="46" style="stroke:#990033;" transform="matrix(1,0,0,1,329,293)" clip-path="url(#_9m3i21_0)"/>
<line x1="155" y1="47" x2="1" y2="47" style="stroke:#990033;" transform="matrix(1,0,0,1,329,293)" clip-path="url(#_9m3i21_0)"/>
<line x1="0" y1="47" x2="0" y2="1" style="stroke:#990033;" transform="matrix(1,0,0,1,329,293)" clip-path="url(#_9m3i21_0)"/>
<g transform="matrix(1,0,0,1,329,293)"><text x="36" y="17" style="fill:#990033;font-family:monospace;" clip-path="url(#_9m3i21_0)">«</text></g>
<g transform="matrix(1,0,0,1,329,293)"><text x="43" y="17" style="fill:#990033;" clip-path="url(#_9m3i21_0)">cache root</text></g>
<g transform="matrix(1,0,0,1,329,293)"><text x="114" y="17" style="fill:#990033;font-family:monospace;" clip-path="url(#_9m3i21_0)">»</text></g>
<g transform="matrix(1,0,0,1,329,293)"><text x="48" y="34" style="fill:#990033;" clip-path="url(#_9m3i21_0)">&quot;b_table&quot;</text></g>
<rect x="0" y="0" width="155" height="47" style="fill:#80ff80;fill-opacity:0.5;" transform="matrix(1,0,0,1,569,293)" clip-path="url(#_9m3i21_0)"/>
<line x1="0" y1="0" x2="154" y2="0" style="stroke:#990033;" transform="matrix(1,0,0,1,569,293)" clip-path="url(#_9m3i21_0)"/>
<line x1="155" y1="0" x2="155" y2="46" style="stroke:#990033;" transform="matrix(1,0,0,1,569,293)" clip-path="url(#_9m3i21_0)"/>
<line x1="155" y1="47" x2="1" y2="47" style="stroke:#990033;" transform="matrix(1,0,0,1,569,293)" clip-path="url(#_9m3i21_0)"/>
<line x1="0" y1="47" x2="0" y2="1" style="stroke:#990033;" transform="matrix(1,0,0,1,569,293)" clip-path="url(#_9m3i21_0)"/>
<g transform="matrix(1,0,0,1,569,293)"><text x="36" y="17" style="fill:#990033;font-family:monospace;" clip-path="url(#_9m3i21_0)">«</text></g>
<g transform="matrix(1,0,0,1,569,293)"><text x="43" y="17" style="fill:#990033;" clip-path="url(#_9m3i21_0)">cache root</text></g>
<g transform="matrix(1,0,0,1,569,293)"><text x="114" y="17" style="fill:#990033;font-family:monospace;" clip-path="url(#_9m3i21_0)">»</text></g>
<g transform="matrix(1,0,0,1,569,293)"><text x="48" y="34" style="fill:#990033;" clip-path="url(#_9m3i21_0)">&quot;c_table&quot;</text></g>
<rect x="0" y="0" width="155" height="47" style="fill:#80c0ff;fill-opacity:0.5;" transform="matrix(1,0,0,1,461,449)" clip-path="url(#_9m3i21_0)"/>
<line x1="0" y1="0" x2="154" y2="0" style="stroke:#990033;" transform="matrix(1,0,0,1,461,449)" clip-path="url(#_9m3i21_0)"/>
<line x1="155" y1="0" x2="155" y2="46" style="stroke:#990033;" transform="matrix(1,0,0,1,461,449)" clip-path="url(#_9m3i21_0)"/>
<line x1="155" y1="47" x2="1" y2="47" style="stroke:#990033;" transform="matrix(1,0,0,1,461,449)" clip-path="url(#_9m3i21_0)"/>
<line x1="0" y1="47" x2="0" y2="1" style="stroke:#990033;" transform="matrix(1,0,0,1,461,449)" clip-path="url(#_9m3i21_0)"/>
<g transform="matrix(1,0,0,1,461,449)"><text x="52" y="17" style="fill:#990033;font-family:monospace;" clip-path="url(#_9m3i21_0)">«</text></g>
<g transform="matrix(1,0,0,1,461,449)"><text x="59" y="17" style="fill:#990033;" clip-path="url(#_9m3i21_0)">cahce</text></g>
<g transform="matrix(1,0,0,1,461,449)"><text x="97" y="17" style="fill:#990033;font-family:monospace;" clip-path="url(#_9m3i21_0)">»</text></g>
<g transform="matrix(1,0,0,1,461,449)"><text x="31" y="34" style="fill:#990033;" clip-path="url(#_9m3i21_0)">cacheModel 1</text></g>
<rect x="0" y="0" width="155" height="47" style="fill:#80c0ff;fill-opacity:0.5;" transform="matrix(1,0,0,1,197,449)" clip-path="url(#_9m3i21_0)"/>
<line x1="0" y1="0" x2="154" y2="0" style="stroke:#990033;" transform="matrix(1,0,0,1,197,449)" clip-path="url(#_9m3i21_0)"/>
<line x1="155" y1="0" x2="155" y2="46" style="stroke:#990033;" transform="matrix(1,0,0,1,197,449)" clip-path="url(#_9m3i21_0)"/>
<line x1="155" y1="47" x2="1" y2="47" style="stroke:#990033;" transform="matrix(1,0,0,1,197,449)" clip-path="url(#_9m3i21_0)"/>
<line x1="0" y1="47" x2="0" y2="1" style="stroke:#990033;" transform="matrix(1,0,0,1,197,449)" clip-path="url(#_9m3i21_0)"/>
<g transform="matrix(1,0,0,1,197,449)"><text x="52" y="17" style="fill:#990033;font-family:monospace;" clip-path="url(#_9m3i21_0)">«</text></g>
<g transform="matrix(1,0,0,1,197,449)"><text x="59" y="17" style="fill:#990033;" clip-path="url(#_9m3i21_0)">cahce</text></g>
<g transform="matrix(1,0,0,1,197,449)"><text x="97" y="17" style="fill:#990033;font-family:monospace;" clip-path="url(#_9m3i21_0)">»</text></g>
<g transform="matrix(1,0,0,1,197,449)"><text x="31" y="34" style="fill:#990033;" clip-path="url(#_9m3i21_0)">cacheModel 1</text></g>
<ellipse cx="89" cy="23" rx="89" ry="23" style="fill:#ffd700;fill-opacity:0.5;" transform="matrix(1,0,0,1,317,593)" clip-path="url(#_9m3i21_1)"/>
<ellipse cx="89" cy="23" rx="89" ry="23" style="stroke:#990033;fill:none;" transform="matrix(1,0,0,1,317,593)" clip-path="url(#_9m3i21_1)"/>
<g transform="matrix(1,0,0,1,317,593)"><text x="25" y="29" style="fill:#990033;" clip-path="url(#_9m3i21_1)">Mapped Statement</text></g>
<rect x="0" y="0" width="143" height="47" style="fill:#c0c0c0;fill-opacity:0.5;" transform="matrix(1,0,0,1,329,5)" clip-path="url(#_9m3i21_2)"/>
<line x1="0" y1="0" x2="142" y2="0" style="stroke:#990033;" transform="matrix(1,0,0,1,329,5)" clip-path="url(#_9m3i21_2)"/>
<line x1="143" y1="0" x2="143" y2="46" style="stroke:#990033;" transform="matrix(1,0,0,1,329,5)" clip-path="url(#_9m3i21_2)"/>
<line x1="143" y1="47" x2="1" y2="47" style="stroke:#990033;" transform="matrix(1,0,0,1,329,5)" clip-path="url(#_9m3i21_2)"/>
<line x1="0" y1="47" x2="0" y2="1" style="stroke:#990033;" transform="matrix(1,0,0,1,329,5)" clip-path="url(#_9m3i21_2)"/>
<g transform="matrix(1,0,0,1,329,5)"><text x="28" y="17" style="fill:#990033;font-style:italic;" clip-path="url(#_9m3i21_2)">FlushListener</text></g>
<line x1="0" y1="20" x2="143" y2="20" style="stroke:#990033;" transform="matrix(1,0,0,1,329,5)" clip-path="url(#_9m3i21_2)"/>
<g transform="matrix(1,0,0,1,329,5)"><text x="7" y="37" style="fill:#990033;" clip-path="url(#_9m3i21_2)">+onFlush(id: String, timestamp: long): void</text></g>
<g transform="matrix(1,0,0,1,5,461)"><text x="18" y="65" style="fill:#990033;" clip-path="url(#_9m3i21_3)">Actor</text></g>
<ellipse cx="36.5" cy="9.5" rx="9.5" ry="9.5" style="fill:#00ffff;fill-opacity:0.5;" transform="matrix(1,0,0,1,5,461)" clip-path="url(#_9m3i21_3)"/>
<ellipse cx="36.5" cy="9.5" rx="9.5" ry="9.5" style="stroke:#990033;fill:none;" transform="matrix(1,0,0,1,5,461)" clip-path="url(#_9m3i21_3)"/>
<line x1="36" y1="19" x2="36" y2="30" style="stroke:#990033;" transform="matrix(1,0,0,1,5,461)" clip-path="url(#_9m3i21_3)"/>
<line x1="22" y1="24" x2="50" y2="24" style="stroke:#990033;" transform="matrix(1,0,0,1,5,461)" clip-path="url(#_9m3i21_3)"/>
<line x1="36" y1="30" x2="24" y2="48" style="stroke:#990033;" transform="matrix(1,0,0,1,5,461)" clip-path="url(#_9m3i21_3)"/>
<line x1="36" y1="30" x2="48" y2="48" style="stroke:#990033;" transform="matrix(1,0,0,1,5,461)" clip-path="url(#_9m3i21_3)"/>
<rect x="0" y="0" width="131" height="35" style="fill:#d2b48c;fill-opacity:0.5;" transform="matrix(1,0,0,1,437,173)" clip-path="url(#_9m3i21_4)"/>
<line x1="0" y1="0" x2="130" y2="0" style="stroke:#990033;" transform="matrix(1,0,0,1,437,173)" clip-path="url(#_9m3i21_4)"/>
<line x1="131" y1="0" x2="131" y2="34" style="stroke:#990033;" transform="matrix(1,0,0,1,437,173)" clip-path="url(#_9m3i21_4)"/>
<line x1="131" y1="35" x2="1" y2="35" style="stroke:#990033;" transform="matrix(1,0,0,1,437,173)" clip-path="url(#_9m3i21_4)"/>
<line x1="0" y1="35" x2="0" y2="1" style="stroke:#990033;" transform="matrix(1,0,0,1,437,173)" clip-path="url(#_9m3i21_4)"/>
<g transform="matrix(1,0,0,1,437,173)"><text x="24" y="17" style="fill:#990033;" clip-path="url(#_9m3i21_4)">CacheModel</text></g>
<line x1="0" y1="20" x2="131" y2="20" style="stroke:#990033;" transform="matrix(1,0,0,1,437,173)" clip-path="url(#_9m3i21_4)"/>
<rect x="0" y="0" width="107" height="35" style="fill:#ffe4c4;fill-opacity:0.5;" transform="matrix(1,0,0,1,221,173)" clip-path="url(#_9m3i21_5)"/>
<line x1="0" y1="0" x2="106" y2="0" style="stroke:#990033;" transform="matrix(1,0,0,1,221,173)" clip-path="url(#_9m3i21_5)"/>
<line x1="107" y1="0" x2="107" y2="34" style="stroke:#990033;" transform="matrix(1,0,0,1,221,173)" clip-path="url(#_9m3i21_5)"/>
<line x1="107" y1="35" x2="1" y2="35" style="stroke:#990033;" transform="matrix(1,0,0,1,221,173)" clip-path="url(#_9m3i21_5)"/>
<line x1="0" y1="35" x2="0" y2="1" style="stroke:#990033;" transform="matrix(1,0,0,1,221,173)" clip-path="url(#_9m3i21_5)"/>
<g transform="matrix(1,0,0,1,221,173)"><text x="18" y="17" style="fill:#990033;" clip-path="url(#_9m3i21_5)">CacheRoot</text></g>
<line x1="0" y1="20" x2="107" y2="20" style="stroke:#990033;" transform="matrix(1,0,0,1,221,173)" clip-path="url(#_9m3i21_5)"/>
<line x1="12" y1="12" x2="66" y2="66" style="stroke:black;" transform="matrix(1,0,0,1,161,329)" clip-path="url(#_9m3i21_6)"/>
<line x1="66" y1="66" x2="120" y2="120" style="stroke:black;" transform="matrix(1,0,0,1,161,329)" clip-path="url(#_9m3i21_6)"/>
<line x1="13" y1="13" x2="26" y2="17" style="stroke:black;" transform="matrix(1,0,0,1,161,329)" clip-path="url(#_9m3i21_6)"/>
<line x1="13" y1="13" x2="17" y2="26" style="stroke:black;" transform="matrix(1,0,0,1,161,329)" clip-path="url(#_9m3i21_6)"/>
<g style="fill:white;; stroke: none" transform="matrix(1,0,0,1,161,329)" clip-path="url(#_9m3i21_6)"><path d="M13,13 L26,17 L17,26 Z"/></g>
<g style="stroke:black;fill:none;" transform="matrix(1,0,0,1,161,329)" clip-path="url(#_9m3i21_6)"><path d="M13,13 L26,17 L17,26 Z"/></g>
<line x1="12" y1="12" x2="66" y2="66" style="stroke:black;" transform="matrix(1,0,0,1,413,329)" clip-path="url(#_9m3i21_6)"/>
<line x1="66" y1="66" x2="120" y2="120" style="stroke:black;" transform="matrix(1,0,0,1,413,329)" clip-path="url(#_9m3i21_6)"/>
<line x1="13" y1="13" x2="26" y2="17" style="stroke:black;" transform="matrix(1,0,0,1,413,329)" clip-path="url(#_9m3i21_6)"/>
<line x1="13" y1="13" x2="17" y2="26" style="stroke:black;" transform="matrix(1,0,0,1,413,329)" clip-path="url(#_9m3i21_6)"/>
<g style="fill:white;; stroke: none" transform="matrix(1,0,0,1,413,329)" clip-path="url(#_9m3i21_6)"><path d="M13,13 L26,17 L17,26 Z"/></g>
<g style="stroke:black;fill:none;" transform="matrix(1,0,0,1,413,329)" clip-path="url(#_9m3i21_6)"><path d="M13,13 L26,17 L17,26 Z"/></g>
<line x1="120" y1="12" x2="66" y2="72" style="stroke:black;stroke-linecap:butt;stroke-dasharray:8,5;" transform="matrix(1,0,0,1,29,329)" clip-path="url(#_9m3i21_7)"/>
<line x1="66" y1="72" x2="12" y2="132" style="stroke:black;stroke-linecap:butt;stroke-dasharray:8,5;" transform="matrix(1,0,0,1,29,329)" clip-path="url(#_9m3i21_7)"/>
<line x1="119" y1="13" x2="116" y2="26" style="stroke:black;" transform="matrix(1,0,0,1,29,329)" clip-path="url(#_9m3i21_7)"/>
<line x1="119" y1="13" x2="106" y2="18" style="stroke:black;" transform="matrix(1,0,0,1,29,329)" clip-path="url(#_9m3i21_7)"/>
<g transform="matrix(1,0,0,1,29,329)"><text x="43" y="74" style="fill:black;font-family:monospace;" clip-path="url(#_9m3i21_7)">«</text></g>
<g transform="matrix(1,0,0,1,29,329)"><text x="50" y="74" style="fill:black;" clip-path="url(#_9m3i21_7)">flush</text></g>
<g transform="matrix(1,0,0,1,29,329)"><text x="82" y="74" style="fill:black;font-family:monospace;" clip-path="url(#_9m3i21_7)">»</text></g>
<line x1="12" y1="12" x2="66" y2="60" style="stroke:black;stroke-linecap:butt;stroke-dasharray:8,5;" transform="matrix(1,0,0,1,269,485)" clip-path="url(#_9m3i21_8)"/>
<line x1="66" y1="60" x2="120" y2="108" style="stroke:black;stroke-linecap:butt;stroke-dasharray:8,5;" transform="matrix(1,0,0,1,269,485)" clip-path="url(#_9m3i21_8)"/>
<line x1="13" y1="13" x2="26" y2="16" style="stroke:black;" transform="matrix(1,0,0,1,269,485)" clip-path="url(#_9m3i21_8)"/>
<line x1="13" y1="13" x2="18" y2="25" style="stroke:black;" transform="matrix(1,0,0,1,269,485)" clip-path="url(#_9m3i21_8)"/>
<g transform="matrix(1,0,0,1,269,485)"><text x="43" y="61" style="fill:black;font-family:monospace;" clip-path="url(#_9m3i21_8)">«</text></g>
<g transform="matrix(1,0,0,1,269,485)"><text x="50" y="61" style="fill:black;" clip-path="url(#_9m3i21_8)">flush</text></g>
<g transform="matrix(1,0,0,1,269,485)"><text x="82" y="61" style="fill:black;font-family:monospace;" clip-path="url(#_9m3i21_8)">»</text></g>
<line x1="12" y1="12" x2="114" y2="66" style="stroke:black;stroke-linecap:butt;stroke-dasharray:8,5;" transform="matrix(1,0,0,1,245,329)" clip-path="url(#_9m3i21_9)"/>
<line x1="114" y1="66" x2="216" y2="120" style="stroke:black;stroke-linecap:butt;stroke-dasharray:8,5;" transform="matrix(1,0,0,1,245,329)" clip-path="url(#_9m3i21_9)"/>
<line x1="14" y1="13" x2="27" y2="13" style="stroke:black;" transform="matrix(1,0,0,1,245,329)" clip-path="url(#_9m3i21_9)"/>
<line x1="14" y1="13" x2="22" y2="24" style="stroke:black;" transform="matrix(1,0,0,1,245,329)" clip-path="url(#_9m3i21_9)"/>
<g transform="matrix(1,0,0,1,245,329)"><text x="81" y="66" style="fill:black;font-family:monospace;" clip-path="url(#_9m3i21_9)">«</text></g>
<g transform="matrix(1,0,0,1,245,329)"><text x="88" y="66" style="fill:black;" clip-path="url(#_9m3i21_9)">onFlush</text></g>
<g transform="matrix(1,0,0,1,245,329)"><text x="140" y="66" style="fill:black;font-family:monospace;" clip-path="url(#_9m3i21_9)">»</text></g>
<line x1="120" y1="12" x2="66" y2="66" style="stroke:black;" transform="matrix(1,0,0,1,521,329)" clip-path="url(#_9m3i21_6)"/>
<line x1="66" y1="66" x2="12" y2="120" style="stroke:black;" transform="matrix(1,0,0,1,521,329)" clip-path="url(#_9m3i21_6)"/>
<line x1="119" y1="13" x2="115" y2="26" style="stroke:black;" transform="matrix(1,0,0,1,521,329)" clip-path="url(#_9m3i21_6)"/>
<line x1="119" y1="13" x2="106" y2="17" style="stroke:black;" transform="matrix(1,0,0,1,521,329)" clip-path="url(#_9m3i21_6)"/>
<g style="fill:white;; stroke: none" transform="matrix(1,0,0,1,521,329)" clip-path="url(#_9m3i21_6)"><path d="M119,13 L115,26 L106,17 Z"/></g>
<g style="stroke:black;fill:none;" transform="matrix(1,0,0,1,521,329)" clip-path="url(#_9m3i21_6)"><path d="M119,13 L115,26 L106,17 Z"/></g>
<line x1="108" y1="12" x2="60" y2="72" style="stroke:black;" transform="matrix(1,0,0,1,257,41)" clip-path="url(#_9m3i21_10)"/>
<line x1="60" y1="72" x2="12" y2="132" style="stroke:black;" transform="matrix(1,0,0,1,257,41)" clip-path="url(#_9m3i21_10)"/>
<line x1="107" y1="13" x2="105" y2="26" style="stroke:black;" transform="matrix(1,0,0,1,257,41)" clip-path="url(#_9m3i21_10)"/>
<line x1="107" y1="13" x2="95" y2="18" style="stroke:black;" transform="matrix(1,0,0,1,257,41)" clip-path="url(#_9m3i21_10)"/>
<g style="fill:white;; stroke: none" transform="matrix(1,0,0,1,257,41)" clip-path="url(#_9m3i21_10)"><path d="M107,13 L105,26 L95,18 Z"/></g>
<g style="stroke:black;fill:none;" transform="matrix(1,0,0,1,257,41)" clip-path="url(#_9m3i21_10)"><path d="M107,13 L105,26 L95,18 Z"/></g>
<line x1="12" y1="12" x2="48" y2="72" style="stroke:black;" transform="matrix(1,0,0,1,413,41)" clip-path="url(#_9m3i21_11)"/>
<line x1="48" y1="72" x2="84" y2="132" style="stroke:black;" transform="matrix(1,0,0,1,413,41)" clip-path="url(#_9m3i21_11)"/>
<line x1="13" y1="13" x2="24" y2="20" style="stroke:black;" transform="matrix(1,0,0,1,413,41)" clip-path="url(#_9m3i21_11)"/>
<line x1="13" y1="13" x2="14" y2="26" style="stroke:black;" transform="matrix(1,0,0,1,413,41)" clip-path="url(#_9m3i21_11)"/>
<g style="fill:white;; stroke: none" transform="matrix(1,0,0,1,413,41)" clip-path="url(#_9m3i21_11)"><path d="M13,13 L24,20 L14,26 Z"/></g>
<g style="stroke:black;fill:none;" transform="matrix(1,0,0,1,413,41)" clip-path="url(#_9m3i21_11)"><path d="M13,13 L24,20 L14,26 Z"/></g>
<line x1="60" y1="12" x2="60" y2="138" style="stroke:black;stroke-linecap:butt;stroke-dasharray:8,5;" transform="matrix(1,0,0,1,341,329)" clip-path="url(#_9m3i21_12)"/>
<line x1="60" y1="138" x2="60" y2="264" style="stroke:black;stroke-linecap:butt;stroke-dasharray:8,5;" transform="matrix(1,0,0,1,341,329)" clip-path="url(#_9m3i21_12)"/>
<line x1="60" y1="14" x2="66" y2="26" style="stroke:black;" transform="matrix(1,0,0,1,341,329)" clip-path="url(#_9m3i21_12)"/>
<line x1="60" y1="14" x2="54" y2="26" style="stroke:black;" transform="matrix(1,0,0,1,341,329)" clip-path="url(#_9m3i21_12)"/>
<g transform="matrix(1,0,0,1,341,329)"><text x="37" y="142" style="fill:black;font-family:monospace;" clip-path="url(#_9m3i21_12)">«</text></g>
<g transform="matrix(1,0,0,1,341,329)"><text x="44" y="142" style="fill:black;" clip-path="url(#_9m3i21_12)">flush</text></g>
<g transform="matrix(1,0,0,1,341,329)"><text x="76" y="142" style="fill:black;font-family:monospace;" clip-path="url(#_9m3i21_12)">»</text></g>
<line x1="156" y1="36" x2="84" y2="36" style="stroke:black;stroke-linecap:butt;stroke-dasharray:8,5;" transform="matrix(1,0,0,1,41,437)" clip-path="url(#_9m3i21_13)"/>
<line x1="84" y1="36" x2="12" y2="36" style="stroke:black;stroke-linecap:butt;stroke-dasharray:8,5;" transform="matrix(1,0,0,1,41,437)" clip-path="url(#_9m3i21_13)"/>
<line x1="155" y1="36" x2="143" y2="42" style="stroke:black;" transform="matrix(1,0,0,1,41,437)" clip-path="url(#_9m3i21_13)"/>
<line x1="155" y1="36" x2="143" y2="30" style="stroke:black;" transform="matrix(1,0,0,1,41,437)" clip-path="url(#_9m3i21_13)"/>
<g transform="matrix(1,0,0,1,41,437)"><text x="61" y="33" style="fill:black;font-family:monospace;" clip-path="url(#_9m3i21_13)">«</text></g>
<g transform="matrix(1,0,0,1,41,437)"><text x="68" y="33" style="fill:black;" clip-path="url(#_9m3i21_13)">flush</text></g>
<g transform="matrix(1,0,0,1,41,437)"><text x="100" y="33" style="fill:black;font-family:monospace;" clip-path="url(#_9m3i21_13)">»</text></g>
<g transform="matrix(1,0,0,1,0,0)"><text x="2" y="644" style="fill:#c0c0c0;font-family:Impact;font-size:11px;" >(c)jbatis.org</text></g></g></svg>
