<?xml version="1.0"?>
<!DOCTYPE svg PUBLIC "-//W3C//DTD SVG 1.0//EN" "http://www.w3.org/TR/2001/REC-SVG-20010904/DTD/svg10.dtd">
<svg xmlns="http://www.w3.org/2000/svg" xmlns:xlink="http://www.w3.org/1999/xlink" width="1018" height="416" text-rendering="auto" shape-rendering="auto">
<defs><clipPath id="_9m3i22_0"><path d="M0,0 L168,0 L168,168 L0,168 L0,0 Z"/></clipPath>
<clipPath id="_9m3i22_1"><path d="M0,0 L0,24 L161,24 L161,0 Z"/></clipPath>
<clipPath id="_9m3i22_2"><path d="M0,0 L0,104 L161,104 L161,0 Z"/></clipPath>
<clipPath id="_9m3i22_3"><path d="M0,0 L0,24 L147,24 L147,0 Z"/></clipPath>
<clipPath id="_9m3i22_4"><path d="M0,0 L224,0 L224,98 L0,98 L0,0 Z"/></clipPath>
<clipPath id="_9m3i22_5"><path d="M0,0 L294,0 L294,140 L0,140 L0,0 Z"/></clipPath>
<clipPath id="_9m3i22_6"><path d="M0,0 L350,0 L350,196 L0,196 L0,0 Z"/></clipPath>
<clipPath id="_9m3i22_7"><path d="M0,0 L85,0 L85,71 L0,71 L0,0 Z"/></clipPath>
<clipPath id="_9m3i22_8"><path d="M0,0 L112,0 L112,28 L0,28 L0,0 Z"/></clipPath>
<clipPath id="_9m3i22_9"><path d="M0,0 L140,0 L140,56 L0,56 L0,0 Z"/></clipPath>
<clipPath id="_9m3i22_10"><path d="M0,0 L126,0 L126,28 L0,28 L0,0 Z"/></clipPath>
<clipPath id="_9m3i22_11"><path d="M0,0 L57,0 L57,169 L0,169 L0,0 Z"/></clipPath>
<clipPath id="_9m3i22_12"><path d="M0,0 L141,0 L141,113 L0,113 L0,0 Z"/></clipPath>
</defs>
<g style="font-family:Microsoft YaHei;font-size:16px;stroke-linecap:square;stroke-opacity:1;fill-opacity:1;">
<rect x="0" y="0" width="167" height="167" style="fill:#c0c0c0;fill-opacity:0.5;" transform="matrix(1,0,0,1,5,89)" clip-path="url(#_9m3i22_0)"/>
<line x1="0" y1="0" x2="166" y2="0" style="stroke:#990033;" transform="matrix(1,0,0,1,5,89)" clip-path="url(#_9m3i22_0)"/>
<line x1="167" y1="0" x2="167" y2="166" style="stroke:#990033;" transform="matrix(1,0,0,1,5,89)" clip-path="url(#_9m3i22_0)"/>
<line x1="167" y1="167" x2="1" y2="167" style="stroke:#990033;" transform="matrix(1,0,0,1,5,89)" clip-path="url(#_9m3i22_0)"/>
<line x1="0" y1="167" x2="0" y2="1" style="stroke:#990033;" transform="matrix(1,0,0,1,5,89)" clip-path="url(#_9m3i22_0)"/>
<g transform="matrix(1,0,0,1,5,89)"><text x="11" y="20" style="fill:#990033;" clip-path="url(#_9m3i22_0)">mapped statement</text></g>
<rect x="0" y="0" width="153" height="23" style="fill:#fefdfc;fill-opacity:0;" transform="matrix(1,0,0,1,12,113)" clip-path="url(#_9m3i22_1)"/>
<line x1="0" y1="0" x2="152" y2="0" style="stroke:#990033;" transform="matrix(1,0,0,1,12,113)" clip-path="url(#_9m3i22_1)"/>
<line x1="153" y1="0" x2="153" y2="22" style="stroke:#990033;" transform="matrix(1,0,0,1,12,113)" clip-path="url(#_9m3i22_1)"/>
<line x1="153" y1="23" x2="1" y2="23" style="stroke:#990033;" transform="matrix(1,0,0,1,12,113)" clip-path="url(#_9m3i22_1)"/>
<line x1="0" y1="23" x2="0" y2="1" style="stroke:#990033;" transform="matrix(1,0,0,1,12,113)" clip-path="url(#_9m3i22_1)"/>
<g transform="matrix(1,0,0,1,12,113)"><text x="49" y="20" style="fill:#990033;" clip-path="url(#_9m3i22_1)">SqlText</text></g>
<rect x="0" y="0" width="153" height="103" style="fill:#fefdfc;fill-opacity:0;" transform="matrix(1,0,0,1,12,141)" clip-path="url(#_9m3i22_2)"/>
<line x1="0" y1="0" x2="152" y2="0" style="stroke:#990033;" transform="matrix(1,0,0,1,12,141)" clip-path="url(#_9m3i22_2)"/>
<line x1="153" y1="0" x2="153" y2="102" style="stroke:#990033;" transform="matrix(1,0,0,1,12,141)" clip-path="url(#_9m3i22_2)"/>
<line x1="153" y1="103" x2="1" y2="103" style="stroke:#990033;" transform="matrix(1,0,0,1,12,141)" clip-path="url(#_9m3i22_2)"/>
<line x1="0" y1="103" x2="0" y2="1" style="stroke:#990033;" transform="matrix(1,0,0,1,12,141)" clip-path="url(#_9m3i22_2)"/>
<g transform="matrix(1,0,0,1,12,141)"><text x="51" y="20" style="fill:#990033;" clip-path="url(#_9m3i22_2)">SqlTag</text></g>
<line x1="0" y1="24" x2="153" y2="24" style="stroke:#990033;" transform="matrix(1,0,0,1,12,141)" clip-path="url(#_9m3i22_2)"/>
<g transform="matrix(1,0,0,1,12,141)"><text x="8" y="44" style="fill:#990033;" clip-path="url(#_9m3i22_2)">prepend=...</text></g>
<rect x="0" y="0" width="139" height="23" style="fill:#fefdfc;fill-opacity:0;" transform="matrix(1,0,0,1,19,189)" clip-path="url(#_9m3i22_3)"/>
<line x1="0" y1="0" x2="138" y2="0" style="stroke:#990033;" transform="matrix(1,0,0,1,19,189)" clip-path="url(#_9m3i22_3)"/>
<line x1="139" y1="0" x2="139" y2="22" style="stroke:#990033;" transform="matrix(1,0,0,1,19,189)" clip-path="url(#_9m3i22_3)"/>
<line x1="139" y1="23" x2="1" y2="23" style="stroke:#990033;" transform="matrix(1,0,0,1,19,189)" clip-path="url(#_9m3i22_3)"/>
<line x1="0" y1="23" x2="0" y2="1" style="stroke:#990033;" transform="matrix(1,0,0,1,19,189)" clip-path="url(#_9m3i22_3)"/>
<g transform="matrix(1,0,0,1,19,189)"><text x="42" y="20" style="fill:#990033;" clip-path="url(#_9m3i22_3)">SqlText</text></g>
<ellipse cx="111" cy="48" rx="111" ry="48" style="fill:#80c0ff;fill-opacity:0.5;" transform="matrix(1,0,0,1,719,5)" clip-path="url(#_9m3i22_4)"/>
<ellipse cx="111" cy="48" rx="111" ry="48" style="stroke:#990033;fill:none;" transform="matrix(1,0,0,1,719,5)" clip-path="url(#_9m3i22_4)"/>
<line x1="15" y1="24" x2="207" y2="24" style="stroke:#990033;" transform="matrix(1,0,0,1,719,5)" clip-path="url(#_9m3i22_4)"/>
<g transform="matrix(1,0,0,1,719,5)"><text x="78" y="17" style="fill:#990033;" clip-path="url(#_9m3i22_4)">StaticSql</text></g>
<g transform="matrix(1,0,0,1,719,5)"><text x="54" y="53" style="fill:#990033;" clip-path="url(#_9m3i22_4)">select a from b</text></g>
<g transform="matrix(1,0,0,1,719,5)"><text x="67" y="74" style="fill:#990033;" clip-path="url(#_9m3i22_4)">where c = ?</text></g>
<ellipse cx="146" cy="69" rx="146" ry="69" style="fill:#80c0ff;fill-opacity:0.5;" transform="matrix(1,0,0,1,719,145)" clip-path="url(#_9m3i22_5)"/>
<ellipse cx="146" cy="69" rx="146" ry="69" style="stroke:#990033;fill:none;" transform="matrix(1,0,0,1,719,145)" clip-path="url(#_9m3i22_5)"/>
<line x1="18" y1="36" x2="274" y2="36" style="stroke:#990033;" transform="matrix(1,0,0,1,719,145)" clip-path="url(#_9m3i22_5)"/>
<g transform="matrix(1,0,0,1,719,145)"><text x="75" y="23" style="fill:#990033;" clip-path="url(#_9m3i22_5)">SimpleDynamicSql</text></g>
<g transform="matrix(1,0,0,1,719,145)"><text x="80" y="74" style="fill:#990033;" clip-path="url(#_9m3i22_5)">select a from $b$</text></g>
<g transform="matrix(1,0,0,1,719,145)"><text x="102" y="95" style="fill:#990033;" clip-path="url(#_9m3i22_5)">where c = ?</text></g>
<ellipse cx="174" cy="97" rx="174" ry="97" style="fill:#80c0ff;fill-opacity:0.5;" transform="matrix(1,0,0,1,313,215)" clip-path="url(#_9m3i22_6)"/>
<ellipse cx="174" cy="97" rx="174" ry="97" style="stroke:#990033;fill:none;" transform="matrix(1,0,0,1,313,215)" clip-path="url(#_9m3i22_6)"/>
<line x1="22" y1="50" x2="326" y2="50" style="stroke:#990033;" transform="matrix(1,0,0,1,313,215)" clip-path="url(#_9m3i22_6)"/>
<g transform="matrix(1,0,0,1,313,215)"><text x="129" y="30" style="fill:#990033;" clip-path="url(#_9m3i22_6)">DynamicSql</text></g>
<g transform="matrix(1,0,0,1,313,215)"><text x="117" y="102" style="fill:#990033;" clip-path="url(#_9m3i22_6)">select a from b</text></g>
<g transform="matrix(1,0,0,1,313,215)"><text x="97" y="123" style="fill:#990033;" clip-path="url(#_9m3i22_6)">&lt;dyn pre=&quot;where&quot;&gt;</text></g>
<g transform="matrix(1,0,0,1,313,215)"><text x="97" y="144" style="fill:#990033;" clip-path="url(#_9m3i22_6)"> c = ? and d like $e$</text></g>
<g transform="matrix(1,0,0,1,313,215)"><text x="144" y="165" style="fill:#990033;" clip-path="url(#_9m3i22_6)">&lt;/dyn&gt;</text></g>
<line x1="70" y1="14" x2="42" y2="35" style="stroke:red;" transform="matrix(1,0,0,1,271,117)" clip-path="url(#_9m3i22_7)"/>
<line x1="42" y1="35" x2="14" y2="56" style="stroke:red;" transform="matrix(1,0,0,1,271,117)" clip-path="url(#_9m3i22_7)"/>
<line x1="70" y1="14" x2="63" y2="29" style="stroke:red;" transform="matrix(1,0,0,1,271,117)" clip-path="url(#_9m3i22_7)"/>
<line x1="70" y1="14" x2="54" y2="17" style="stroke:red;" transform="matrix(1,0,0,1,271,117)" clip-path="url(#_9m3i22_7)"/>
<g transform="matrix(1,0,0,1,271,117)"><text x="35" y="36" style="fill:red;" clip-path="url(#_9m3i22_7)">N</text></g>
<g style="fill:#fefdfc;fill-opacity:0;; stroke: none" transform="matrix(1,0,0,1,173,159)" clip-path="url(#_9m3i22_8)"><path d="M56,0 L112,14 L56,27 L0,14 Z"/></g>
<g style="stroke:#990033;fill:none;" transform="matrix(1,0,0,1,173,159)" clip-path="url(#_9m3i22_8)"><path d="M56,0 L112,14 L56,27 L0,14 Z"/></g>
<g transform="matrix(1,0,0,1,173,159)"><text x="11" y="20" style="fill:#990033;" clip-path="url(#_9m3i22_8)">has SqlTag?</text></g>
<ellipse cx="69" cy="27" rx="69" ry="27" style="fill:#ffafaf;fill-opacity:0.5;" transform="matrix(1,0,0,1,341,103)" clip-path="url(#_9m3i22_9)"/>
<ellipse cx="69" cy="27" rx="69" ry="27" style="stroke:#990033;fill:none;" transform="matrix(1,0,0,1,341,103)" clip-path="url(#_9m3i22_9)"/>
<g transform="matrix(1,0,0,1,341,103)"><text x="42" y="34" style="fill:#990033;" clip-path="url(#_9m3i22_9)">RawSql</text></g>
<g style="fill:#fefdfc;fill-opacity:0;; stroke: none" transform="matrix(1,0,0,1,481,117)" clip-path="url(#_9m3i22_10)"><path d="M63,0 L126,14 L63,27 L0,14 Z"/></g>
<g style="stroke:#990033;fill:none;" transform="matrix(1,0,0,1,481,117)" clip-path="url(#_9m3i22_10)"><path d="M63,0 L126,14 L63,27 L0,14 Z"/></g>
<g transform="matrix(1,0,0,1,481,117)"><text x="21" y="20" style="fill:#990033;" clip-path="url(#_9m3i22_10)">has $key$?</text></g>
<line x1="42" y1="154" x2="28" y2="84" style="stroke:red;" transform="matrix(1,0,0,1,271,159)" clip-path="url(#_9m3i22_11)"/>
<line x1="28" y1="84" x2="14" y2="14" style="stroke:red;" transform="matrix(1,0,0,1,271,159)" clip-path="url(#_9m3i22_11)"/>
<line x1="42" y1="153" x2="32" y2="140" style="stroke:red;" transform="matrix(1,0,0,1,271,159)" clip-path="url(#_9m3i22_11)"/>
<line x1="42" y1="153" x2="46" y2="137" style="stroke:red;" transform="matrix(1,0,0,1,271,159)" clip-path="url(#_9m3i22_11)"/>
<g transform="matrix(1,0,0,1,271,159)"><text x="23" y="88" style="fill:red;" clip-path="url(#_9m3i22_11)">Y</text></g>
<line x1="126" y1="14" x2="70" y2="56" style="stroke:red;" transform="matrix(1,0,0,1,593,33)" clip-path="url(#_9m3i22_12)"/>
<line x1="70" y1="56" x2="14" y2="98" style="stroke:red;" transform="matrix(1,0,0,1,593,33)" clip-path="url(#_9m3i22_12)"/>
<line x1="125" y1="15" x2="118" y2="30" style="stroke:red;" transform="matrix(1,0,0,1,593,33)" clip-path="url(#_9m3i22_12)"/>
<line x1="125" y1="15" x2="109" y2="18" style="stroke:red;" transform="matrix(1,0,0,1,593,33)" clip-path="url(#_9m3i22_12)"/>
<g transform="matrix(1,0,0,1,593,33)"><text x="63" y="57" style="fill:red;" clip-path="url(#_9m3i22_12)">N</text></g>
<line x1="126" y1="98" x2="70" y2="56" style="stroke:red;" transform="matrix(1,0,0,1,593,117)" clip-path="url(#_9m3i22_12)"/>
<line x1="70" y1="56" x2="14" y2="14" style="stroke:red;" transform="matrix(1,0,0,1,593,117)" clip-path="url(#_9m3i22_12)"/>
<line x1="125" y1="97" x2="109" y2="94" style="stroke:red;" transform="matrix(1,0,0,1,593,117)" clip-path="url(#_9m3i22_12)"/>
<line x1="125" y1="97" x2="118" y2="82" style="stroke:red;" transform="matrix(1,0,0,1,593,117)" clip-path="url(#_9m3i22_12)"/>
<g transform="matrix(1,0,0,1,593,117)"><text x="65" y="57" style="fill:red;" clip-path="url(#_9m3i22_12)">Y</text></g>
<g transform="matrix(1,0,0,1,0,0)"><text x="2" y="414" style="fill:#c0c0c0;font-family:Impact;font-size:11px;" >(c)jbatis.org</text></g></g></svg>
